<svg width="20" height="20" viewBox="0 0 20 20" fill="none" xmlns="http://www.w3.org/2000/svg">
<path fill-rule="evenodd" clip-rule="evenodd" d="M0 9.9C0 5.77529 0 3.71294 1.05041 2.26718C1.38964 1.80026 1.80026 1.38964 2.26718 1.05041C3.71294 0 5.77529 0 9.9 0H10.1C14.2247 0 16.2871 0 17.7328 1.05041C18.1997 1.38964 18.6104 1.80026 18.9496 2.26718C20 3.71294 20 5.77529 20 9.9V10.1C20 14.2247 20 16.2871 18.9496 17.7328C18.6104 18.1997 18.1997 18.6104 17.7328 18.9496C16.2871 20 14.2247 20 10.1 20H9.9C5.77529 20 3.71294 20 2.26718 18.9496C1.80026 18.6104 1.38964 18.1997 1.05041 17.7328C0 16.2871 0 14.2247 0 10.1V9.9ZM10.0002 4.70591C7.07652 4.70591 4.70608 7.07636 4.70608 10C4.70608 12.9237 7.07652 15.2942 10.0002 15.2942C12.9239 15.2942 15.2943 12.9237 15.2943 10C15.2943 7.07636 12.9239 4.70591 10.0002 4.70591ZM10.0002 13.3089C8.17637 13.3089 6.69137 11.8239 6.69137 10C6.69137 8.17489 8.17637 6.69121 10.0002 6.69121C11.824 6.69121 13.309 8.17489 13.309 10C13.309 11.8239 11.824 13.3089 10.0002 13.3089ZM16.3966 4.30883C16.3966 4.69844 16.0807 5.01427 15.6911 5.01427C15.3015 5.01427 14.9857 4.69844 14.9857 4.30883C14.9857 3.91923 15.3015 3.60339 15.6911 3.60339C16.0807 3.60339 16.3966 3.91923 16.3966 4.30883Z" fill="#069315"/>
</svg>
