<svg width="21" height="17" viewBox="0 0 21 17" fill="none" xmlns="http://www.w3.org/2000/svg">
<path d="M21 1.93249C20.2271 2.26043 19.3978 2.48283 18.5264 2.58212C19.4161 2.07196 20.0972 1.26279 20.42 0.301552C19.5854 0.773988 18.6642 1.11704 17.6826 1.303C16.8966 0.500101 15.7785 0 14.5384 0C12.1593 0 10.2303 1.84706 10.2303 4.12385C10.2303 4.44676 10.2683 4.76215 10.3418 5.06373C6.76201 4.89157 3.58768 3.24933 1.46314 0.753881C1.09176 1.36204 0.880492 2.07068 0.880492 2.82713C0.880492 4.2583 1.64161 5.52109 2.7964 6.25989C2.0904 6.23728 1.42639 6.05132 0.84508 5.74221V5.79373C0.84508 7.79157 2.33056 9.45894 4.30024 9.83843C3.93936 9.93141 3.55882 9.98293 3.16514 9.98293C2.88696 9.98293 2.61794 9.95655 2.35417 9.90628C2.90267 11.546 4.49315 12.7384 6.37756 12.7711C4.90388 13.8769 3.04573 14.534 1.02749 14.534C0.679756 14.534 0.337236 14.5139 0 14.4775C1.90671 15.6498 4.17036 16.3333 6.60327 16.3333C14.528 16.3333 18.8597 10.0483 18.8597 4.59757L18.8453 4.06356C19.6917 3.48553 20.4239 2.75928 21 1.93249Z" fill="#069315"/>
</svg>
