<svg width="13" height="14" viewBox="0 0 13 14" fill="none" xmlns="http://www.w3.org/2000/svg">
<path d="M7.41347 10.0164L4.61414 8.48978C4.24867 8.88049 3.77413 9.15224 3.25219 9.2697C2.73024 9.38717 2.18504 9.34493 1.68742 9.14847C1.1898 8.95201 0.762778 8.61041 0.461849 8.16808C0.160921 7.72574 0 7.20311 0 6.66811C0 6.13312 0.160921 5.61049 0.461849 5.16815C0.762778 4.72581 1.1898 4.38421 1.68742 4.18775C2.18504 3.99129 2.73024 3.94905 3.25219 4.06652C3.77413 4.18399 4.24867 4.45574 4.61414 4.84645L7.41414 3.31978C7.25517 2.6905 7.33117 2.02484 7.62789 1.44758C7.92461 0.870324 8.42168 0.4211 9.02592 0.184113C9.63015 -0.0528732 10.3001 -0.0613512 10.9101 0.160268C11.5202 0.381888 12.0284 0.81839 12.3397 1.38795C12.6509 1.95752 12.7437 2.62104 12.6007 3.25414C12.4578 3.88725 12.0888 4.44647 11.563 4.82699C11.0372 5.2075 10.3906 5.38319 9.74454 5.32111C9.09846 5.25903 8.49721 4.96345 8.05347 4.48978L5.25347 6.01645C5.36094 6.44402 5.36094 6.89154 5.25347 7.31911L8.0528 8.84578C8.49654 8.37211 9.0978 8.07653 9.74387 8.01445C10.3899 7.95237 11.0365 8.12806 11.5623 8.50857C12.0881 8.88909 12.4571 9.44831 12.6001 10.0814C12.7431 10.7145 12.6502 11.378 12.339 11.9476C12.0278 12.5172 11.5195 12.9537 10.9095 13.1753C10.2994 13.3969 9.62949 13.3884 9.02525 13.1514C8.42101 12.9145 7.92394 12.4652 7.62723 11.888C7.33051 11.3107 7.25451 10.6451 7.41347 10.0158V10.0164ZM2.6668 8.00111C3.02043 8.00111 3.35956 7.86064 3.60961 7.61059C3.85966 7.36054 4.00014 7.0214 4.00014 6.66778C4.00014 6.31416 3.85966 5.97502 3.60961 5.72497C3.35956 5.47492 3.02043 5.33445 2.6668 5.33445C2.31318 5.33445 1.97404 5.47492 1.72399 5.72497C1.47395 5.97502 1.33347 6.31416 1.33347 6.66778C1.33347 7.0214 1.47395 7.36054 1.72399 7.61059C1.97404 7.86064 2.31318 8.00111 2.6668 8.00111ZM10.0001 4.00111C10.3538 4.00111 10.6929 3.86064 10.9429 3.61059C11.193 3.36054 11.3335 3.0214 11.3335 2.66778C11.3335 2.31416 11.193 1.97502 10.9429 1.72497C10.6929 1.47492 10.3538 1.33445 10.0001 1.33445C9.64652 1.33445 9.30738 1.47492 9.05733 1.72497C8.80728 1.97502 8.6668 2.31416 8.6668 2.66778C8.6668 3.0214 8.80728 3.36054 9.05733 3.61059C9.30738 3.86064 9.64652 4.00111 10.0001 4.00111ZM10.0001 12.0011C10.3538 12.0011 10.6929 11.8606 10.9429 11.6106C11.193 11.3605 11.3335 11.0214 11.3335 10.6678C11.3335 10.3142 11.193 9.97502 10.9429 9.72497C10.6929 9.47492 10.3538 9.33445 10.0001 9.33445C9.64652 9.33445 9.30738 9.47492 9.05733 9.72497C8.80728 9.97502 8.6668 10.3142 8.6668 10.6678C8.6668 11.0214 8.80728 11.3605 9.05733 11.6106C9.30738 11.8606 9.64652 12.0011 10.0001 12.0011Z" fill="white"/>
</svg>
