<svg width="72" height="72" viewBox="0 0 72 72" fill="none" xmlns="http://www.w3.org/2000/svg">
<g clip-path="url(#clip0_111_369)">
<path d="M30.731 60.4619C30.3607 60.4619 29.9982 60.6124 29.7367 60.8739C29.4752 61.1354 29.3247 61.4985 29.3247 61.8682C29.3247 62.2379 29.4752 62.601 29.7367 62.8624C29.9982 63.1239 30.3607 63.2744 30.731 63.2744C31.1006 63.2744 31.4632 63.1239 31.7252 62.8624C31.9867 62.601 32.1372 62.2395 32.1372 61.8682C32.1372 61.4985 31.9867 61.1354 31.7252 60.8739C31.4632 60.6124 31.1006 60.4619 30.731 60.4619Z" fill="#069315"/>
<path d="M58.7401 36.8531L55.4628 22.0474C56.3472 21.9276 57.1273 21.4777 57.676 20.8262C58.3237 21.2311 59.0878 21.4662 59.9062 21.4662H62.7188C63.4955 21.4662 64.125 20.8367 64.125 20.0599V14.4349C64.125 13.6582 63.4955 13.0287 62.7188 13.0287H59.9062C59.0636 13.0287 58.2781 13.2781 57.6183 13.706C56.9745 12.9781 56.0347 12.5178 54.9888 12.5178H46.6875C45.1961 12.5178 43.9195 13.4533 43.4114 14.7678H40.0781C38.0621 14.7678 36.4219 16.4081 36.4219 18.4241C36.4219 20.4401 38.0621 22.0803 40.0781 22.0803H47.3165V24.9142C47.3165 25.691 47.946 26.3205 48.7227 26.3205C49.4995 26.3205 50.129 25.691 50.129 24.9142V22.0803H52.5899L56.1198 38.0297L49.439 49.929C48.709 51.2243 47.3324 52.0291 45.8454 52.0291H29.1676C28.4694 46.1739 23.4772 41.6184 17.4375 41.6184C14.7651 41.6184 12.2437 42.4891 10.1459 44.1359C10.1431 44.1381 10.1404 44.1403 10.1376 44.1425C7.63989 46.1069 6.06995 48.926 5.7041 52.0291H2.8158C2.99927 41.9194 11.2802 33.7522 21.4321 33.7522H31.4077C32.1949 33.7522 32.8359 34.3932 32.8359 35.181V47.8103C32.8359 48.587 33.4655 49.2166 34.2422 49.2166H41.725C44.7775 49.2166 47.5906 47.5565 49.066 44.8852C49.7488 43.6492 50.1108 42.2496 50.1119 40.8384L50.1191 36.1664C50.1202 35.3897 49.4912 34.7591 48.7145 34.758C48.7139 34.758 48.7134 34.758 48.7128 34.758C47.9372 34.758 47.3077 35.3864 47.3066 36.162L47.2994 40.8351C47.2989 41.7733 47.0583 42.7039 46.6046 43.5251C45.6235 45.3005 43.7536 46.4035 41.725 46.4035H35.6484V35.1804C35.6484 34.4603 35.4672 33.7813 35.1491 33.1864C36.4125 32.4564 37.2651 31.0919 37.2651 29.5312C37.2651 27.2049 35.3721 25.3125 33.0463 25.3125H27.9135C27.4202 25.3125 26.9473 25.3982 26.5073 25.5542V13.2188C26.5073 10.8924 24.6143 9 22.2885 9H13.2166C6.64014 9 1.17114 13.8285 0.165894 20.1259C0.123596 20.2599 0.100525 20.4022 0.100525 20.5499C0.100525 20.5587 0.101624 20.567 0.101624 20.5752C0.034607 21.1135 0 21.6612 0 22.2166V29.5318C0 31.6439 1.56061 33.3984 3.58923 33.7033L6.70331 36.8174C2.57739 40.7263 0 46.2535 0 52.3724V53.4353C0 54.212 0.629517 54.8416 1.40625 54.8416H9.30927C9.29114 54.9322 9.28125 55.0267 9.28125 55.1228C9.28125 57.1635 10.0366 59.0306 11.2802 60.4622H1.40625C0.629517 60.4622 0 61.0922 0 61.8684C0 62.6451 0.629517 63.2747 1.40625 63.2747H17.2749C17.3293 63.2763 17.3831 63.2791 17.4375 63.2791C21.9348 63.2791 25.5938 59.6201 25.5938 55.1228C25.5938 55.0267 25.5839 54.9322 25.5657 54.8416H45.8454C48.0597 54.8416 50.129 53.7803 51.4259 52.0247H53.2068C52.8063 52.9991 52.5938 54.0494 52.5938 55.1228C52.5938 57.1635 53.3491 59.0306 54.5927 60.4622H36.356C35.5792 60.4622 34.9497 61.0922 34.9497 61.8684C34.9497 62.6451 35.5792 63.2747 36.356 63.2747H60.5874C60.6418 63.2763 60.6956 63.2791 60.75 63.2791C65.2473 63.2791 68.9062 59.6201 68.9062 55.1228C68.9062 54.0494 68.6937 52.9991 68.2932 52.0247H70.5938C71.3705 52.0247 72 51.3951 72 50.6184C72 43.1955 66.0976 37.125 58.7401 36.8531ZM27.9135 28.1255H33.0463C33.8214 28.1255 34.4526 28.7562 34.4526 29.5318C34.4526 30.3069 33.8214 30.938 33.0463 30.938H27.9135C27.1379 30.938 26.5073 30.3069 26.5073 29.5318C26.5073 28.7562 27.1379 28.1255 27.9135 28.1255ZM2.8125 22.2166C2.8125 22.1298 2.81689 22.0435 2.81909 21.9567H18.2071C18.9838 21.9567 19.6133 21.3272 19.6133 20.5505C19.6133 19.7737 18.9838 19.1442 18.2071 19.1442H3.27612C4.59009 14.9024 8.54901 11.813 13.2166 11.813H22.288C23.0636 11.813 23.6942 12.4437 23.6942 13.2193V29.5318C23.6942 30.3069 23.0636 30.938 22.288 30.938H4.2193C4.2193 30.938 4.21875 30.938 4.2182 30.938C3.44312 30.938 2.8125 30.3069 2.8125 29.5318V22.2166ZM7.61407 33.7505H10.832C10.1563 34.1362 9.50427 34.5586 8.87695 35.0134L7.61407 33.7505ZM22.7812 55.1228C22.7812 58.0512 20.4131 60.4358 17.4919 60.4649C17.4738 60.4644 17.4556 60.4622 17.4375 60.4622H17.2755C14.4036 60.3759 12.0938 58.015 12.0938 55.1228C12.0938 55.0267 12.0839 54.9322 12.0657 54.8416H22.8093C22.7911 54.9322 22.7812 55.0267 22.7812 55.1228ZM8.54187 52.0291C8.89014 49.795 10.0635 47.7768 11.8757 46.3535C11.8801 46.3508 11.8839 46.3469 11.8883 46.3442C13.4846 45.0928 15.4034 44.4309 17.4375 44.4309C21.9243 44.4309 25.6547 47.7296 26.332 52.0291H8.54187ZM59.9062 15.8412H61.3125V18.6537H59.9062C59.1306 18.6537 58.5 18.0231 58.5 17.2474C58.5 16.4724 59.1306 15.8412 59.9062 15.8412ZM39.2344 18.4241C39.2344 17.9588 39.6129 17.5803 40.0781 17.5803H43.1763V18.5691C43.1763 18.8086 43.2004 19.0421 43.246 19.2678H40.0781C39.6129 19.2678 39.2344 18.8893 39.2344 18.4241ZM48.7227 19.2678H46.6875C46.3024 19.2678 45.9888 18.9547 45.9888 18.5691V16.0291C45.9888 15.644 46.3024 15.3303 46.6875 15.3303H54.9888C55.3738 15.3303 55.6875 15.644 55.6875 16.0291V18.5691C55.6875 18.9547 55.3738 19.2678 54.9888 19.2678H48.7227ZM66.0938 55.1228C66.0938 58.0512 63.7256 60.4358 60.8044 60.4649C60.7863 60.4644 60.7681 60.4622 60.75 60.4622H60.588C57.7161 60.3759 55.4062 58.015 55.4062 55.1228C55.4062 54.0055 55.7545 52.9255 56.3961 52.0247H65.1039C65.7455 52.9255 66.0938 54.0055 66.0938 55.1228ZM53.0667 49.2122L58.4291 39.6612C63.9053 39.7617 68.4141 43.8953 69.0974 49.2122H53.0667Z" fill="#069315"/>
<path d="M48.7227 31.9453C49.4995 31.9453 50.129 31.3158 50.129 30.5391C50.129 29.7623 49.4995 29.1328 48.7227 29.1328H48.7178C47.941 29.1328 47.3137 29.7623 47.3137 30.5391C47.3137 31.3158 47.946 31.9453 48.7227 31.9453Z" fill="#069315"/>
</g>
<defs>
<clipPath id="clip0_111_369">
<rect width="72" height="72" fill="white"/>
</clipPath>
</defs>
</svg>
