<svg width="72" height="72" viewBox="0 0 72 72" fill="none" xmlns="http://www.w3.org/2000/svg">
<path d="M67.5707 63.5137L56.9958 45.1974C57.3756 44.7549 57.8918 44.4275 58.4942 44.2855C60.16 43.8931 61.5413 42.7836 62.2838 41.2416C63.0264 39.6997 63.0325 37.9281 62.3008 36.3811C61.7407 35.1971 62.0608 33.7947 63.0792 32.9709C64.4097 31.8945 65.1729 30.2956 65.1729 28.5842C65.1729 26.8729 64.4097 25.2739 63.0792 24.1976C62.0608 23.3738 61.7407 21.9714 62.3008 20.7874C63.0326 19.2403 63.0264 17.4686 62.2838 15.9267C61.5413 14.3848 60.16 13.2753 58.4941 12.8828C57.2192 12.5825 56.3223 11.4579 56.3132 10.148C56.3014 8.43669 55.527 6.84318 54.189 5.77615C52.851 4.70912 51.1249 4.30877 49.454 4.67804C48.1748 4.96041 46.879 4.33647 46.3024 3.16032C45.5491 1.62362 44.1602 0.523827 42.4916 0.143026C40.8229 -0.237915 39.0944 0.150479 37.7489 1.20809C36.7193 2.01764 35.2809 2.01764 34.2511 1.20809C32.9056 0.150479 31.1771 -0.237634 29.5085 0.143026C27.8399 0.523827 26.451 1.62362 25.6977 3.16032C25.1212 4.33647 23.8248 4.96083 22.5463 4.67804C20.8751 4.30905 19.1492 4.70912 17.8113 5.77615C16.4733 6.84318 15.699 8.43669 15.6871 10.148C15.6779 11.4578 14.7811 12.5825 13.506 12.8828C11.8403 13.2753 10.4589 14.3848 9.71646 15.9267C8.97384 17.4686 8.9678 19.2403 9.69945 20.7873C10.2595 21.9713 9.93949 23.3737 8.92111 24.1974C7.59056 25.2739 6.82741 26.8728 6.82741 28.5841C6.82741 30.2955 7.59056 31.8945 8.92111 32.9708C9.93949 33.7945 10.2595 35.1969 9.69945 36.381C8.96766 37.9281 8.97384 39.6997 9.71646 41.2416C10.4589 42.7836 11.8403 43.8931 13.5062 44.2855C14.1086 44.4274 14.6248 44.7549 15.0046 45.1974L4.42983 63.5137C4.14507 64.007 4.18599 64.6233 4.53333 65.0746C4.8808 65.5258 5.46606 65.7229 6.01575 65.5739L13.381 63.5757L15.3333 70.9534C15.479 71.504 15.9424 71.9123 16.507 71.9875C16.5693 71.9958 16.6315 71.9999 16.6932 71.9999C17.1906 71.9999 17.6572 71.7355 17.9106 71.2968L26.9339 55.6681C27.6485 56.3295 28.5298 56.802 29.5088 57.0255C31.1771 57.406 32.9059 57.018 34.2515 55.9604C35.2811 55.1509 36.7196 55.1509 37.7493 55.9604C38.7562 56.7518 39.9773 57.1685 41.2276 57.1685C41.648 57.1685 42.072 57.1214 42.4919 57.0255C43.4709 56.802 44.3523 56.3295 45.0668 55.6681L54.0901 71.2968C54.3435 71.7356 54.8101 71.9999 55.3075 71.9999C55.3691 71.9999 55.4314 71.9958 55.4937 71.9875C56.0583 71.9123 56.5217 71.5039 56.6674 70.9534L58.6197 63.5757L65.985 65.5739C66.5346 65.7233 67.12 65.5258 67.4674 65.0746C67.8147 64.6233 67.8556 64.007 67.5707 63.5137ZM17.1799 66.9375L15.738 61.4885C15.6421 61.1265 15.406 60.8176 15.0817 60.6304C14.7573 60.4431 14.3718 60.3931 14.0105 60.4911L8.5704 61.9669L16.059 48.9963C16.4134 49.925 17.0105 50.7534 17.8116 51.3923C19.1496 52.4594 20.8757 52.8597 22.5465 52.4905C23.4902 52.2821 24.4424 52.5684 25.1088 53.2047L17.1799 66.9375ZM41.866 54.2836C41.0287 54.4745 40.1621 54.2799 39.4874 53.7496C38.4607 52.9424 37.2307 52.539 36.0003 52.539C34.7701 52.539 33.5396 52.9425 32.5132 53.7496C31.8385 54.28 30.9718 54.4748 30.1346 54.2836C29.2977 54.0927 28.6011 53.541 28.2233 52.7703C27.0738 50.4253 24.4896 49.1809 21.9398 49.7443C21.1015 49.9295 20.236 49.7287 19.565 49.1935C18.8939 48.6583 18.5055 47.8591 18.4995 47.0008C18.4813 44.3893 16.6932 42.1471 14.1512 41.5482C13.3156 41.3513 12.6229 40.7949 12.2504 40.0215C11.8781 39.2481 11.875 38.3596 12.242 37.5835C13.3585 35.2228 12.7204 32.4268 10.69 30.7844C10.0226 30.2446 9.63996 29.4426 9.63996 28.5842C9.63996 27.7259 10.0227 26.9239 10.6901 26.3841C12.7204 24.7416 13.3587 21.9457 12.242 19.5848C11.875 18.8089 11.8781 17.9203 12.2506 17.147C12.6229 16.3736 13.3158 15.8172 14.1512 15.6203C16.6932 15.0214 18.4813 12.7792 18.4995 10.1677C18.5055 9.30938 18.8938 8.51009 19.565 7.97503C20.236 7.43983 21.1014 7.23888 21.9399 7.42422C24.4895 7.98712 27.0738 6.7432 28.2233 4.39821C28.6011 3.62746 29.2977 3.07581 30.1346 2.88485C30.9717 2.69402 31.8385 2.8885 32.5132 3.41892C34.5664 5.03311 37.4342 5.03311 39.4874 3.41892C40.1622 2.8885 41.0289 2.69402 41.866 2.88485C42.7028 3.07581 43.3995 3.62746 43.7773 4.39821C44.9267 6.7432 47.5108 7.98712 50.0608 7.42422C50.8988 7.23874 51.7646 7.43983 52.4356 7.97503C53.1066 8.51023 53.495 9.30938 53.5011 10.1677C53.5192 12.7792 55.3074 15.0214 57.8493 15.6203C58.6849 15.8172 59.3776 16.3736 59.7501 17.147C60.1225 17.9204 60.1256 18.8089 59.7586 19.5849C58.642 21.9457 59.2802 24.7416 61.3106 26.3841C61.978 26.9239 62.3606 27.7259 62.3606 28.5842C62.3606 29.4426 61.9778 30.2446 61.3104 30.7844C59.2802 32.4268 58.6419 35.2228 59.7586 37.5837C60.1256 38.3596 60.1225 39.2482 59.75 40.0215C59.3776 40.7949 58.6848 41.3513 57.8493 41.5482C55.3074 42.1471 53.5192 44.3893 53.5011 47.0008C53.495 47.8591 53.1068 48.6584 52.4356 49.1935C51.7646 49.7287 50.899 49.9293 50.0607 49.7443C47.5108 49.1808 44.9267 50.4253 43.7773 52.7703C43.3995 53.541 42.7028 54.0925 41.866 54.2836ZM57.9901 60.4911C57.6286 60.3931 57.2431 60.4433 56.9189 60.6304C56.5946 60.8177 56.3583 61.1265 56.2626 61.4885L54.8207 66.9375L46.8919 53.2047C47.5585 52.5682 48.5106 52.2818 49.454 52.4905C51.1253 52.8596 52.851 52.4594 54.189 51.3923C54.9901 50.7535 55.5872 49.925 55.9415 48.9963L63.4302 61.9669L57.9901 60.4911Z" fill="white"/>
<path d="M42.691 39.2186C42.9811 39.2186 43.2712 39.129 43.5175 38.95C44.0092 38.5929 44.2157 37.9602 44.0297 37.3818L41.8131 30.4903L47.6585 26.1953C48.1483 25.8355 48.3515 25.2016 48.1622 24.624C47.9728 24.0465 47.4338 23.656 46.8261 23.656H39.5925L37.3368 16.7832C37.1473 16.2058 36.6084 15.8154 36.0008 15.8154C35.3932 15.8154 34.8542 16.2058 34.6648 16.7832L32.4091 23.656H25.1756C24.5678 23.656 24.0287 24.0465 23.8394 24.624C23.65 25.2016 23.8532 25.8355 24.3431 26.1953L30.1885 30.4903L27.9719 37.3818C27.7859 37.9604 27.9925 38.5929 28.4841 38.95C28.9758 39.3072 29.6412 39.3081 30.1338 38.9524L36.0011 34.7161L41.8683 38.9524C42.1136 39.1299 42.4021 39.2186 42.691 39.2186ZM36.8237 31.8417C36.5779 31.6642 36.2892 31.5755 36.0005 31.5755C35.7118 31.5755 35.4231 31.6642 35.1773 31.8417L31.9608 34.1642L33.1756 30.3872C33.3608 29.8114 33.157 29.1816 32.6695 28.8234L29.4641 26.4681H33.4273C34.0349 26.4681 34.5739 26.0778 34.7634 25.5004L36.0005 21.7308L37.2377 25.5004C37.4273 26.0778 37.9661 26.4681 38.5737 26.4681H42.537L39.3316 28.8234C38.844 29.1816 38.6403 29.8113 38.8255 30.3872L40.0403 34.1642L36.8237 31.8417Z" fill="white"/>
<path d="M55.6872 28.5843C55.6872 17.729 46.8557 8.89746 36.0004 8.89746C25.145 8.89746 16.3135 17.729 16.3135 28.5843C16.3135 36.8426 21.5273 44.2821 29.2874 47.0966C30.0174 47.3613 30.824 46.9843 31.0889 46.2542C31.3537 45.5241 30.9766 44.7176 30.2464 44.4527C23.595 42.0403 19.126 35.6633 19.126 28.5843C19.126 19.2798 26.6959 11.7099 36.0005 11.7099C45.3051 11.7099 52.875 19.2798 52.875 28.5843C52.875 35.6638 48.4056 42.0409 41.7537 44.4531C41.0236 44.7179 40.6463 45.5243 40.9111 46.2545C41.1185 46.8262 41.6581 47.1817 42.2331 47.1817C42.3923 47.1817 42.5541 47.1544 42.7125 47.097C50.473 44.2828 55.6872 36.8431 55.6872 28.5843Z" fill="white"/>
<path d="M36.0002 45.459C35.6304 45.459 35.2676 45.6095 35.006 45.871C34.7445 46.1326 34.594 46.4954 34.594 46.8652C34.594 47.2351 34.7445 47.5979 35.006 47.8595C35.2676 48.121 35.6304 48.2715 36.0002 48.2715C36.3701 48.2715 36.7329 48.121 36.9945 47.8595C37.256 47.5979 37.4065 47.2351 37.4065 46.8652C37.4065 46.4954 37.256 46.1326 36.9945 45.871C36.7329 45.6095 36.3701 45.459 36.0002 45.459Z" fill="white"/>
</svg>
