<svg width="72" height="72" viewBox="0 0 72 72" fill="none" xmlns="http://www.w3.org/2000/svg">
<path d="M54 60.75C54 59.86 53.7361 58.99 53.2416 58.2499C52.7472 57.5099 52.0444 56.9331 51.2221 56.5925C50.3998 56.2519 49.495 56.1628 48.6221 56.3365C47.7492 56.5101 46.9474 56.9387 46.318 57.568C45.6887 58.1974 45.2601 58.9992 45.0865 59.8721C44.9128 60.745 45.0019 61.6498 45.3425 62.4721C45.6831 63.2944 46.2599 63.9972 46.9999 64.4916C47.74 64.9861 48.61 65.25 49.5 65.25C50.6935 65.25 51.8381 64.7759 52.682 63.932C53.5259 63.0881 54 61.9435 54 60.75ZM47.25 60.75C47.25 60.305 47.382 59.87 47.6292 59.5C47.8764 59.13 48.2278 58.8416 48.639 58.6713C49.0501 58.501 49.5025 58.4564 49.939 58.5432C50.3754 58.6301 50.7763 58.8443 51.091 59.159C51.4057 59.4737 51.62 59.8746 51.7068 60.3111C51.7936 60.7475 51.749 61.1999 51.5787 61.611C51.4084 62.0222 51.1201 62.3736 50.75 62.6208C50.38 62.8681 49.945 63 49.5 63C48.9033 63 48.331 62.763 47.909 62.341C47.4871 61.919 47.25 61.3467 47.25 60.75Z" fill="#069315"/>
<path d="M63.1294 59.4205C62.8338 59.3802 62.5344 59.4588 62.2969 59.6392C62.0593 59.8196 61.9031 60.0869 61.8626 60.3824L60.8929 67.5003H43.875C43.5766 67.5003 43.2905 67.6188 43.0795 67.8298C42.8685 68.0407 42.75 68.3269 42.75 68.6253C42.75 68.9236 42.8685 69.2098 43.0795 69.4208C43.2905 69.6317 43.5766 69.7503 43.875 69.7503H61.875C62.1471 69.7503 62.41 69.6517 62.6149 69.4728C62.8199 69.2939 62.9531 69.0467 62.9899 68.7771L64.0935 60.6873C64.1134 60.5408 64.1043 60.3918 64.0667 60.2488C64.029 60.1058 63.9635 59.9717 63.874 59.854C63.7844 59.7364 63.6726 59.6375 63.5448 59.5632C63.4171 59.4888 63.2759 59.4403 63.1294 59.4205Z" fill="#069315"/>
<path d="M66.0971 43.1349C65.9915 43.0141 65.8613 42.9173 65.7152 42.8509C65.5691 42.7845 65.4105 42.7502 65.25 42.7502H59.9625L61.8503 32.8356C61.8744 32.7039 61.8744 32.569 61.8503 32.4373L62.3689 30.0231L64.0485 32.8232L62.6963 39.1738C62.6338 39.4655 62.6898 39.77 62.8518 40.0204C63.0138 40.2708 63.2686 40.4466 63.5603 40.5092C63.6383 40.5257 63.7179 40.5339 63.7976 40.5339C64.0546 40.5335 64.3037 40.4451 64.5035 40.2834C64.7033 40.1217 64.8417 39.8965 64.8956 39.6452L66.3491 32.8603C66.4098 32.5815 66.3615 32.2901 66.2141 32.0458L62.8391 26.4208C62.7233 26.2274 62.5521 26.0731 62.3476 25.9782C62.1431 25.8832 61.9148 25.8519 61.6923 25.8883C61.4698 25.9247 61.2633 26.0271 61.0997 26.1822C60.9361 26.3373 60.8229 26.5381 60.7748 26.7583L59.85 31.0502L55.5379 29.3256C55.3786 29.2619 55.2068 29.2354 55.0357 29.2483C54.8646 29.2612 54.6987 29.3131 54.5507 29.3999C54.4027 29.4868 54.2766 29.6063 54.1819 29.7494C54.0872 29.8925 54.0266 30.0554 54.0045 30.2256L53.0708 37.6933L52.3204 37.5054L51.75 30.2852C51.727 30.0401 51.6243 29.8093 51.4575 29.6282L51.6825 26.7313L52.7524 26.4107L55.7179 27.9924C55.8484 28.0647 55.992 28.1103 56.1403 28.1266C56.2886 28.1429 56.4386 28.1295 56.5817 28.0872C56.7248 28.045 56.858 27.9747 56.9737 27.8804C57.0893 27.7862 57.1851 27.6699 57.2553 27.5383C57.3256 27.4067 57.369 27.2624 57.383 27.1139C57.397 26.9653 57.3813 26.8155 57.3369 26.6731C57.2924 26.5307 57.2201 26.3985 57.1241 26.2843C57.0281 26.1702 56.9103 26.0762 56.7776 26.0079L53.4026 24.2079C53.1408 24.0681 52.8343 24.0373 52.5499 24.1224L50.2999 24.7974C50.0827 24.8625 49.8903 24.9915 49.7478 25.1678C49.6052 25.344 49.5193 25.5592 49.5011 25.7852L49.3616 27.5244L48.0431 26.2048C47.9292 26.0912 47.7922 26.0034 47.6414 25.9473C47.4907 25.8912 47.3296 25.868 47.1692 25.8794C47.0087 25.8909 46.8525 25.9366 46.7112 26.0134C46.5699 26.0903 46.4467 26.1966 46.35 26.3252L45 28.1252V27.0002C45 26.1051 44.6444 25.2466 44.0115 24.6137C43.3786 23.9808 42.5201 23.6252 41.625 23.6252H39.375V22.5002C39.375 21.6051 39.0194 20.7466 38.3865 20.1137C37.7536 19.4808 36.8951 19.1252 36 19.1252H30.375V13.8039L38.997 8.05519C39.1199 7.97321 39.2255 7.86782 39.3077 7.74503C39.3899 7.62224 39.4471 7.48446 39.476 7.33956C39.505 7.19466 39.5051 7.04548 39.4764 6.90054C39.4476 6.75559 39.3906 6.61773 39.3086 6.49482L36.8134 2.75082C36.7314 2.62789 36.626 2.52231 36.5032 2.44012C36.3804 2.35792 36.2426 2.30072 36.0977 2.27179C35.9528 2.24285 35.8037 2.24274 35.6587 2.27146C35.5138 2.30019 35.3759 2.35718 35.253 2.43919L25.128 9.18919C24.6652 9.49686 24.2858 9.91429 24.0235 10.4043C23.7613 10.8942 23.6243 11.4415 23.625 11.9972V19.1252H18C17.1049 19.1252 16.2465 19.4808 15.6135 20.1137C14.9806 20.7466 14.625 21.6051 14.625 22.5002V23.6252H12.375C11.4799 23.6252 10.6215 23.9808 9.98852 24.6137C9.35558 25.2466 9 26.1051 9 27.0002V29.2502C9 29.2727 9.675 35.1767 9.675 35.1767C9.70619 35.451 9.83714 35.7042 10.0429 35.8882C10.2487 36.0722 10.515 36.1741 10.791 36.1746C10.8339 36.1748 10.8767 36.1721 10.9193 36.1667C11.2155 36.1328 11.4861 35.9827 11.6717 35.7494C11.8574 35.5161 11.9428 35.2187 11.9093 34.9224L11.385 30.3752H20.25C20.5484 30.3752 20.8345 30.2567 21.0455 30.0457C21.2565 29.8347 21.375 29.5486 21.375 29.2502C21.375 28.9518 21.2565 28.6657 21.0455 28.4547C20.8345 28.2437 20.5484 28.1252 20.25 28.1252H11.25V27.0002C11.25 26.7018 11.3685 26.4157 11.5795 26.2047C11.7905 25.9937 12.0766 25.8752 12.375 25.8752H41.625C41.9234 25.8752 42.2095 25.9937 42.4205 26.2047C42.6315 26.4157 42.75 26.7018 42.75 27.0002V28.1252H24.75C24.4516 28.1252 24.1655 28.2437 23.9545 28.4547C23.7435 28.6657 23.625 28.9518 23.625 29.2502C23.625 29.5486 23.7435 29.8347 23.9545 30.0457C24.1655 30.2567 24.4516 30.3752 24.75 30.3752H43.3125L42.975 30.8252C42.8083 31.0451 42.7282 31.3185 42.75 31.5936L43.0875 35.6492L42.6803 34.4994C42.6238 34.3399 42.5321 34.1951 42.4119 34.0759C42.2917 33.9566 42.1462 33.8661 41.9861 33.8109L38.6528 32.6657C38.3706 32.569 38.0617 32.5883 37.7938 32.7193C37.5258 32.8503 37.3209 33.0823 37.224 33.3643L36.6154 35.1339L35.919 33.3429C35.8372 33.1323 35.6939 32.9512 35.5076 32.8231C35.3214 32.6951 35.101 32.6261 34.875 32.6252H30.375C30.1937 32.6251 30.015 32.6688 29.8542 32.7526C29.6934 32.8364 29.5552 32.9578 29.4515 33.1065C29.3477 33.2552 29.2815 33.4268 29.2583 33.6067C29.2352 33.7865 29.2559 33.9693 29.3186 34.1394L30.0195 36.0396C29.763 36.0227 29.5099 36.0002 29.25 36.0002H18C15.5729 35.9978 13.1992 36.7124 11.1769 38.0544C11.0537 38.1361 10.9479 38.2413 10.8654 38.3639C10.7829 38.4865 10.7253 38.6241 10.696 38.769C10.6369 39.0615 10.6963 39.3656 10.8613 39.6143C11.0263 39.8629 11.2833 40.0359 11.5759 40.0951C11.8684 40.1543 12.1724 40.0948 12.4211 39.9298C14.0748 38.8328 16.0156 38.2485 18 38.2502H29.25C31.7396 38.2532 34.1411 39.1722 35.9967 40.832C37.8524 42.4918 39.0324 44.7763 39.312 47.2502H7.938C8.11504 45.658 8.66966 44.131 9.55575 42.7963C9.70446 42.5476 9.75147 42.2511 9.68698 41.9686C9.62248 41.6861 9.45146 41.4394 9.20955 41.2798C8.96763 41.1203 8.67349 41.0602 8.38841 41.1122C8.10333 41.1642 7.8493 41.3242 7.67925 41.5588C6.33893 43.5794 5.62437 45.9505 5.625 48.3752C5.625 48.6736 5.74353 48.9597 5.95451 49.1707C6.16548 49.3817 6.45163 49.5002 6.75 49.5002H6.89175C7.08362 50.296 7.47949 51.028 8.04038 51.6242C7.93671 52.0333 7.88121 52.4532 7.875 52.8752C7.87631 54.3318 8.44534 55.7306 9.46125 56.7744C8.80546 57.1739 8.30914 57.7891 8.05747 58.5146C7.8058 59.24 7.81448 60.0304 8.082 60.7502H6.75C6.45163 60.7502 6.16548 60.8687 5.95451 61.0797C5.74353 61.2907 5.625 61.5768 5.625 61.8752V64.1252C5.62679 65.6165 6.21999 67.0462 7.2745 68.1007C8.329 69.1552 9.75871 69.7484 11.25 69.7502H14.625C14.9234 69.7502 15.2095 69.6317 15.4205 69.4207C15.6315 69.2097 15.75 68.9236 15.75 68.6252C15.75 68.3268 15.6315 68.0407 15.4205 67.8297C15.2095 67.6187 14.9234 67.5002 14.625 67.5002H11.25C10.3549 67.5002 9.49645 67.1446 8.86352 66.5117C8.23058 65.8787 7.875 65.0203 7.875 64.1252V63.0002H25.5589L26.1214 63.7022C26.2268 63.834 26.3605 63.9404 26.5126 64.0135C26.6647 64.0866 26.8312 64.1246 27 64.1246C27.1688 64.1246 27.3354 64.0866 27.4874 64.0135C27.6395 63.9404 27.7732 63.834 27.8786 63.7022L32.0411 58.5002H36C36.2984 58.5002 36.5845 58.6187 36.7955 58.8297C37.0065 59.0407 37.125 59.3268 37.125 59.6252C37.125 59.9236 37.0065 60.2097 36.7955 60.4207C36.5845 60.6317 36.2984 60.7502 36 60.7502H33.525C33.2266 60.7502 32.9405 60.8687 32.7295 61.0797C32.5185 61.2907 32.4 61.5768 32.4 61.8752C32.4 62.1736 32.5185 62.4597 32.7295 62.6707C32.9405 62.8817 33.2266 63.0002 33.525 63.0002H39.375V64.1252C39.375 65.0203 39.0194 65.8787 38.3865 66.5117C37.7536 67.1446 36.8951 67.5002 36 67.5002H19.125C18.8266 67.5002 18.5405 67.6187 18.3295 67.8297C18.1185 68.0407 18 68.3268 18 68.6252C18 68.9236 18.1185 69.2097 18.3295 69.4207C18.5405 69.6317 18.8266 69.7502 19.125 69.7502H36C37.4913 69.7484 38.921 69.1552 39.9755 68.1007C41.03 67.0462 41.6232 65.6165 41.625 64.1252V61.8752C41.625 61.5768 41.5065 61.2907 41.2955 61.0797C41.0845 60.8687 40.7984 60.7502 40.5 60.7502H39.168C39.4355 60.0304 39.4442 59.24 39.1925 58.5146C38.9409 57.7891 38.4445 57.1739 37.7888 56.7744C38.8047 55.7306 39.3737 54.3318 39.375 52.8752C39.3715 52.4764 39.3243 52.0791 39.2344 51.6906C39.8977 51.1383 40.3284 50.3561 40.4404 49.5002H40.5C40.5702 49.4932 40.6395 49.4792 40.707 49.4586C43.0719 51.7137 46.2329 52.942 49.5 52.8752C55.2274 52.8752 59.9681 49.4338 60.6623 45.0002H63.9608L62.4713 55.9217C62.4515 56.0681 62.4607 56.217 62.4984 56.3598C62.5362 56.5027 62.6017 56.6367 62.6912 56.7542C62.7807 56.8717 62.8925 56.9705 63.0202 57.0448C63.1479 57.1191 63.289 57.1675 63.4354 57.1873C63.4856 57.1949 63.5364 57.1987 63.5873 57.1986C63.8593 57.1986 64.1222 57.1 64.3272 56.9211C64.5322 56.7422 64.6654 56.495 64.7021 56.2254L66.3649 44.0271C66.3865 43.8679 66.3739 43.7059 66.3277 43.552C66.2815 43.3981 66.2029 43.2559 66.0971 43.1349ZM25.875 11.9972C25.875 11.812 25.9207 11.6297 26.008 11.4664C26.0953 11.3032 26.2216 11.164 26.3756 11.0612L35.5646 4.93557L36.8134 6.80757L28.6256 12.2627C28.4716 12.3655 28.3453 12.5047 28.258 12.6679C28.1707 12.8312 28.125 13.0135 28.125 13.1987V19.1252H25.875V11.9972ZM16.875 23.6252V22.5002C16.875 22.2018 16.9935 21.9157 17.2045 21.7047C17.4155 21.4937 17.7016 21.3752 18 21.3752H36C36.2984 21.3752 36.5845 21.4937 36.7955 21.7047C37.0065 21.9157 37.125 22.2018 37.125 22.5002V23.6252H16.875ZM51.6735 39.6722L53.9471 40.2347L53.3756 49.9524C52.6291 50.2216 51.856 50.4102 51.0694 50.5149L51.6735 39.6722ZM47.3715 28.7136L49.536 30.8781L50.0501 37.3029C50.0183 37.3152 49.9871 37.3291 49.9568 37.3446C49.8245 37.4434 49.7156 37.5701 49.6379 37.7157C49.5601 37.8614 49.5153 38.0223 49.5068 38.1872L48.8171 50.5881C48.0571 50.5441 47.3033 50.4243 46.5671 50.2303L45.0315 31.8377L47.3715 28.7136ZM31.9894 34.8752H34.1055L35.118 37.4852C34.31 37.0519 33.4561 36.7104 32.5721 36.4671L31.9894 34.8752ZM37.0901 52.5264C37.1085 52.6419 37.1201 52.7584 37.125 52.8752C37.125 53.7703 36.7694 54.6287 36.1365 55.2617C35.5036 55.8946 34.6451 56.2502 33.75 56.2502H13.5C12.6311 56.2472 11.7968 55.9091 11.1709 55.3064C10.5449 54.7038 10.1755 53.8829 10.1396 53.0147L10.2431 53.0676C10.9054 53.3967 11.6349 53.568 12.3744 53.568C13.114 53.568 13.8435 53.3967 14.5058 53.0676L16.3159 52.1676C16.4894 52.0805 16.6809 52.0351 16.875 52.0351C17.0691 52.0351 17.2606 52.0805 17.4341 52.1676L19.809 53.3544C20.2956 53.5964 20.8316 53.7224 21.375 53.7224C21.9184 53.7224 22.4544 53.5964 22.941 53.3544L25.3125 52.1631C25.486 52.076 25.6775 52.0306 25.8716 52.0306C26.0658 52.0306 26.2572 52.076 26.4308 52.1631L28.8056 53.3499C29.2922 53.5919 29.8282 53.7179 30.3716 53.7179C30.915 53.7179 31.4511 53.5919 31.9376 53.3499L34.3125 52.1631C34.486 52.076 34.6775 52.0306 34.8716 52.0306C35.0658 52.0306 35.2572 52.076 35.4308 52.1631C35.9456 52.4187 36.5155 52.5435 37.0901 52.5264ZM11.25 60.7502C10.9516 60.7502 10.6655 60.6317 10.4545 60.4207C10.2435 60.2097 10.125 59.9236 10.125 59.6252C10.125 59.3268 10.2435 59.0407 10.4545 58.8297C10.6655 58.6187 10.9516 58.5002 11.25 58.5002H21.9589L23.7589 60.7502H11.25ZM27 61.2002L24.8411 58.5002H29.1589L27 61.2002ZM37.6571 50.0964C37.6156 50.1188 37.5728 50.1387 37.5289 50.1561C37.5203 50.1554 37.5116 50.1554 37.503 50.1561C37.4884 50.1617 37.4805 50.1741 37.4659 50.1797C37.3031 50.2495 37.1269 50.2828 36.9498 50.2771C36.7727 50.2715 36.5991 50.2271 36.441 50.1471C35.9544 49.9051 35.4184 49.7792 34.875 49.7792C34.3316 49.7792 33.7956 49.9051 33.309 50.1471L30.9375 51.3373C30.764 51.4244 30.5725 51.4698 30.3784 51.4698C30.1842 51.4698 29.9928 51.4244 29.8193 51.3373L27.4444 50.1504C26.9578 49.9085 26.4218 49.7825 25.8784 49.7825C25.335 49.7825 24.7989 49.9085 24.3124 50.1504L21.9375 51.3373C21.764 51.4244 21.5725 51.4698 21.3784 51.4698C21.1842 51.4698 20.9928 51.4244 20.8193 51.3373L18.4444 50.1504C17.9578 49.9085 17.4218 49.7825 16.8784 49.7825C16.335 49.7825 15.7989 49.9085 15.3124 50.1504L13.5034 51.0504C13.1538 51.2242 12.7687 51.3146 12.3784 51.3146C11.988 51.3146 11.603 51.2242 11.2534 51.0504L10.3905 50.6252C9.91014 50.3797 9.52246 49.9849 9.28575 49.5002H38.151C38.0548 49.7466 37.8816 49.9553 37.6571 50.0953V50.0964ZM41.5395 46.9701C41.3362 45.1956 40.7484 43.4868 39.8171 41.9627L38.3096 37.1376L38.9903 35.1542L40.7464 35.7583L43.8266 44.4568L44.2305 49.3011C43.1664 48.7405 42.2456 47.9425 41.5395 46.9689V46.9701ZM55.6999 48.7566L56.25 39.4416C56.2654 39.1797 56.1889 38.9207 56.0336 38.7093C55.8783 38.498 55.654 38.3475 55.3995 38.2839L55.2735 38.2502L56.061 31.9592L59.4709 33.3238L56.6933 47.9151C56.3856 48.2218 56.0534 48.5029 55.6999 48.7554V48.7566Z" fill="#069315"/>
<path d="M25.875 43.875C26.4963 43.875 27 43.3713 27 42.75C27 42.1287 26.4963 41.625 25.875 41.625C25.2537 41.625 24.75 42.1287 24.75 42.75C24.75 43.3713 25.2537 43.875 25.875 43.875Z" fill="#069315"/>
<path d="M21.375 42.75C21.9963 42.75 22.5 42.2463 22.5 41.625C22.5 41.0037 21.9963 40.5 21.375 40.5C20.7537 40.5 20.25 41.0037 20.25 41.625C20.25 42.2463 20.7537 42.75 21.375 42.75Z" fill="#069315"/>
<path d="M18 45C18.6213 45 19.125 44.4963 19.125 43.875C19.125 43.2537 18.6213 42.75 18 42.75C17.3787 42.75 16.875 43.2537 16.875 43.875C16.875 44.4963 17.3787 45 18 45Z" fill="#069315"/>
<path d="M34.875 45C35.4963 45 36 44.4963 36 43.875C36 43.2537 35.4963 42.75 34.875 42.75C34.2537 42.75 33.75 43.2537 33.75 43.875C33.75 44.4963 34.2537 45 34.875 45Z" fill="#069315"/>
<path d="M13.5 43.875C14.1213 43.875 14.625 43.3713 14.625 42.75C14.625 42.1287 14.1213 41.625 13.5 41.625C12.8787 41.625 12.375 42.1287 12.375 42.75C12.375 43.3713 12.8787 43.875 13.5 43.875Z" fill="#069315"/>
<path d="M30.375 42.75C30.9963 42.75 31.5 42.2463 31.5 41.625C31.5 41.0037 30.9963 40.5 30.375 40.5C29.7537 40.5 29.25 41.0037 29.25 41.625C29.25 42.2463 29.7537 42.75 30.375 42.75Z" fill="#069315"/>
</svg>
